#!OML:ASF \\sashay\E\basketball\basketball\Project 1\Capture day 1\Session 1\Subject.ASF
:FULLY-SPECIFIED
:DEGREES
98
root 11.1898 14.2394 7.43233 198.125 -24.0312 -176.334
lowerback 29.7114 1.46935 -2.92879
upperback 10.9037 -1.14071 0.958685
thorax -4.00769 -1.54043 3.17327
lowerneck -6.37269 8.04626 -13.4422
upperneck -20.1926 10.6411 4.48819
head -6.13695 5.2662 3.26225
rclavicle -4.77083e-015 2.74323e-014
rhumerus -14.0465 -34.9091 -51.7975
rradius 50.5685
rwrist -36.2026
rhand -27.8931 31.6808
rfingers 7.12502
rthumb -1.28268 1.7049
lclavicle -4.77083e-015 2.74323e-014
lhumerus -13.3511 27.892 37.2449
lradius 65.54
lwrist 50.3341
lhand -23.0821 19.9857
lfingers 7.12502
lthumb 3.36384 49.939
rfemur -62.3405 -28.3756 23.7485
rtibia 86.4641
rfoot -10.7704 -17.6165
rtoes -41.6874
lfemur -39.8177 34.5893 -28.4931
ltibia 81.4033
lfoot -5.5433 -9.17539
ltoes -26.0258
99
root 10.7439 14.3218 7.28691 198.104 -22.2442 -176.736
lowerback 29.7164 1.52235 -3.10967
upperback 10.8297 -1.16965 0.599403
thorax -4.09924 -1.55573 2.89203
lowerneck -5.67081 8.46127 -13.5912
upperneck -20.1383 11.0583 3.66711
head -6.24767 5.54958 2.95791
rclavicle 5.56597e-015 2.46493e-014
rhumerus -11.5938 -33.8769 -53.397
rradius 49.5798
rwrist -35.6548
rhand -27.8789 31.7705
rfingers 7.12502
rthumb -1.26897 1.79448
lclavicle 5.56597e-015 2.46493e-014
lhumerus -15.8995 29.0076 37.5515
lradius 65.977
lwrist 51.2543
lhand -22.3098 20.5289
lfingers 7.12502
lthumb 4.10964 50.469
rfemur -65.35 -26.8629 26.6124
rtibia 85.424
rfoot -12.08 -15.6221
rtoes -43.3228
lfemur -37.8822 34.202 -28.2587
ltibia 81.1347
lfoot -3.42532 -11.4099
ltoes -23.8845
100
root 10.3062 14.3808 7.14091 197.986 -20.7135 -177.387
lowerback 29.8803 1.53106 -3.42071
upperback 10.9367 -1.35772 0.174988
thorax -4.04906 -1.6763 2.66428
lowerneck -4.95688 8.75737 -13.9239
upperneck -20.626 11.3122 3.22677
head -6.55134 5.72444 2.80973
rclavicle -1.43125e-014 3.61788e-014
rhumerus -9.06084 -32.9802 -55.3721
rradius 48.9132
rwrist -34.9708
rhand -27.9413 31.9413
rfingers 7.12502
rthumb -1.32925 1.96565
lclavicle -1.43125e-014 3.61788e-014
lhumerus -18.3209 30.2893 37.6996
lradius 66.6445
lwrist 52.0099
lhand -21.971 20.4444
lfingers 7.12502
lthumb 4.43677 50.3779
rfemur -67.6816 -25.6902 29.3479
rtibia 83.8524
rfoot -10.8883 -14.9131
rtoes -49.709
lfemur -36.0907 33.4594 -28.2043
ltibia 81.1835
lfoot -2.48367 -12.5949
ltoes -25.7187
101
root 9.87697 14.4403 6.99326 197.882 -19.4957 -178.065
lowerback 30.0453 1.4213 -3.7368
upperback 11.1606 -1.73655 -0.349054
thorax -3.85965 -1.90361 2.38627
lowerneck -5.00276 9.14844 -12.945
upperneck -20.8212 11.6364 1.96977
head -6.50269 5.87619 2.23906
rclavicle -1.19271e-014 5.08889e-014
rhumerus -6.39717 -32.1663 -57.9236
rradius 48.5292
rwrist -34.2779
rhand -27.9714 32.1182
rfingers 7.12502
rthumb -1.35824 2.14282
lclavicle -1.19271e-014 5.08889e-014
lhumerus -20.581 31.631 37.3513
lradius 67.4443
lwrist 53.0071
lhand -21.9873 20.1921
lfingers 7.12502
lthumb 4.42099 50.1259
rfemur -69.5603 -24.6931 31.3667
rtibia 82.4027
rfoot -14.5235 -10.0154
rtoes -45.9148
lfemur -34.6484 32.4633 -28.2664
ltibia 81.4253
lfoot -1.96285 -12.0442
ltoes -21.2848
102
root 9.45759 14.4633 6.84771 197.708 -18.5884 -178.545
lowerback 30.2473 1.31142 -3.78086
upperback 11.4644 -2.05097 -0.738345
thorax -3.60553 -2.10671 2.0787
lowerneck -5.15546 9.51205 -12.4522
upperneck -21.2399 11.9685 1.08801
head -6.55825 6.03541 1.86601
rclavicle 7.23576e-014 3.26007e-014
rhumerus -3.74763 -31.6392 -60.4256
rradius 48.3634
rwrist -33.7796
rhand -27.8206 32.3736
rfingers 7.12502
rthumb -1.21266 2.39731
lclavicle 7.23576e-014 3.26007e-014
lhumerus -22.351 32.9151 37.1656
lradius 68.1739
lwrist 53.8562
lhand -21.7365 20.1399
lfingers 7.12502
lthumb 4.66319 50.0686
rfemur -71.2791 -23.9805 33.7039
rtibia 80.8631
rfoot -15.0501 -7.26882
rtoes -48.2468
lfemur -33.6682 31.6585 -28.0871
ltibia 82.1466
lfoot -4.23177 -5.93559
ltoes -26.9669
103
root 9.04172 14.4897 6.70116 197.454 -17.9628 -179.001
lowerback 30.4954 1.29366 -3.54428
upperback 11.8499 -2.17888 -0.993583
thorax -3.29425 -2.22357 1.69734
lowerneck -5.36526 9.6577 -12.3252
upperneck -21.7537 12.0411 0.570118
head -6.66156 6.0677 1.68265
rclavicle -2.62396e-014 2.94201e-014
rhumerus -1.67311 -31.4474 -62.2359
rradius 48.5466
rwrist -33.5
rhand -27.7079 32.7048
rfingers 7.12502
rthumb -1.10381 2.72794
lclavicle -2.62396e-014 2.94201e-014
lhumerus -23.2715 34.0347 37.8633
lradius 68.9035
lwrist 54.4492
lhand -21.4861 20.1345
lfingers 7.12502
lthumb 4.90501 50.0577
rfemur -72.5126 -23.5417 35.9134
rtibia 79.1702
rfoot -15.9311 -4.76758
rtoes -50.4855
lfemur -32.9562 30.5875 -27.6743
ltibia 83.072
lfoot -5.90633 0.146907
ltoes -22.5144
